<svg width="563" height="132" viewBox="0 0 563 132" fill="none" xmlns="http://www.w3.org/2000/svg">
<g clip-path="url(#clip0_70_1120)">
<path d="M218.6 28.8008H226.4V67.4008H218.6V28.8008ZM243.4 17.6008H201.6V9.80078H243.4V17.6008Z" fill="white"/>
<path d="M65.7998 28.8008H73.5998V67.4008H65.7998V28.8008ZM90.5998 17.6008H48.7998V9.80078H90.5998V17.6008Z" fill="white"/>
<path d="M122.4 46.9008H108.8V67.4008H100.9V39.1008H122.5C129.4 39.1008 133.3 34.0008 133.3 28.4008C133.3 22.8008 129.4 17.6008 122.5 17.6008H100.9V9.80078H122.5C134.2 9.80078 141.4 18.1008 141.4 28.4008C141.4 36.0008 137.4 42.5008 130.6 45.4008L143 67.4008H134L122.4 46.9008Z" fill="white"/>
<path d="M298.1 38.7008C298.1 26.8008 290.1 17.1008 278.2 17.1008C266.3 17.1008 258.3 26.7008 258.3 38.6008C258.3 50.5008 266.3 60.2008 278.2 60.2008C290 60.2008 298.1 50.6008 298.1 38.7008ZM306.2 38.7008C306.2 54.9008 294.5 68.0008 278.2 68.0008C261.9 68.0008 250.3 54.8008 250.3 38.6008C250.3 22.4008 262 9.30078 278.2 9.30078C294.4 9.30078 306.2 22.4008 306.2 38.7008Z" fill="white"/>
<path d="M35.4 51.7992C35.4 57.0992 30 60.2992 23 60.2992C14.8 60.2992 9.5 56.1992 7.5 52.0992L0 55.1992C3.1 62.2992 11.3 68.2992 23.2 68.2992C36.5 68.2992 43.6 60.5992 43.6 51.5992C43.6 41.0992 34.9 37.5992 23.2 34.2992H23.1C14 31.6992 10 29.6992 10 25.2992C10 21.2992 13.2 17.0992 21.7 17.0992C22.5 17.0992 23.6 17.1992 24.3 17.2992L28.8 10.1992C26.6 9.49922 24.2 9.19922 21.5 9.19922C9.5 9.19922 1.8 15.5992 1.6 24.9992C1.3 34.9992 8.8 38.4992 20.4 41.7992C30.2 44.5992 35.3 46.5992 35.4 51.7992Z" fill="white"/>
<path d="M350.2 51.7992C350.2 57.0992 344.8 60.2992 337.8 60.2992C329.6 60.2992 324.3 56.1992 322.3 52.0992L314.8 55.1992C317.9 62.2992 326.1 68.2992 338 68.2992C351.3 68.2992 358.4 60.5992 358.4 51.5992C358.4 41.0992 349.7 37.5992 338 34.2992H337.9C328.8 31.6992 324.7 29.7992 324.7 25.2992C324.7 21.2992 327.9 17.0992 336.4 17.0992C337.2 17.0992 338.3 17.1992 339 17.2992L343.5 10.1992C341.3 9.49922 338.9 9.19922 336.2 9.19922C324.3 9.19922 316.6 15.5992 316.3 24.9992C316 34.9992 323.5 38.4992 335.1 41.7992C345 44.5992 350.2 46.5992 350.2 51.7992Z" fill="white"/>
<path d="M524 67.2H562.3V59.3H524V67.2ZM370.4 34.4V67.1H378.3V42.1H402.8V34.4H370.4ZM524 42.1H559.3V34.4H524V42.1ZM370.4 17.3H408.2V9.5H370.4V17.3ZM433 9.5L412.3 67.2H421L436.9 21.3L452.8 67.2H461.5L440.6 9.5H433ZM471.6 9.5V17.3H493.2C500.1 17.3 504 22.4 504 28.1C504 33.8 500.1 38.8 493.2 38.8H471.6V67.1H479.5V46.7H493.1L504.7 67.2H513.7L501.3 45.1C508.1 42.2 512.1 35.7 512.1 28.1C512.1 17.8 504.9 9.5 493.2 9.5H471.6ZM524 17.3H562.3V9.5H524V17.3Z" fill="#122E5C"/>
<mask id="mask0_70_1120" style="mask-type:luminance" maskUnits="userSpaceOnUse" x="370" y="9" width="193" height="59">
<path d="M524 59.1984V67.0984H541.3C544.3 64.5984 547.3 61.9984 550.1 59.1984H524ZM370.4 34.3984V52.7984C372.9 55.6984 375.6 58.3984 378.3 61.0984V42.0984H402.8V34.3984H370.4ZM524 42.0984H559.3V34.3984H524V42.0984ZM433 9.49844L412.3 67.1984H421L436.9 21.2984L452.8 67.1984H461.5L440.6 9.49844H433ZM471.6 9.49844V17.2984H493.2C500.1 17.2984 504 22.3984 504 28.0984C504 33.7984 500.1 38.7984 493.2 38.7984H471.6V67.0984H479.5V46.5984H493.1L504.7 67.0984H513.7L501.3 44.9984C508.1 42.0984 512.1 35.5984 512.1 27.9984C512.1 17.6984 504.9 9.39844 493.2 9.39844L471.6 9.49844ZM370.4 17.2984H408.2V9.49844H370.4V17.2984ZM524 17.2984H562.3V9.49844H524V17.2984Z" fill="white"/>
</mask>
<g mask="url(#mask0_70_1120)">
<path d="M562.2 9.5H370.3V67.2H562.2V9.5Z" fill="url(#paint0_linear_70_1120)"/>
</g>
<mask id="mask1_70_1120" style="mask-type:luminance" maskUnits="userSpaceOnUse" x="505" y="27" width="4" height="4">
<path d="M508.8 27.3008H505.9V30.2008H508.8V27.3008Z" fill="white"/>
</mask>
<g mask="url(#mask1_70_1120)">
<mask id="mask2_70_1120" style="mask-type:luminance" maskUnits="userSpaceOnUse" x="505" y="27" width="4" height="4">
<path d="M508.8 27.3008H505.9V30.2008H508.8V27.3008Z" fill="white"/>
</mask>
<g mask="url(#mask2_70_1120)">
<path d="M507.4 27.3008C508.2 27.3008 508.9 28.0008 508.9 28.8008C508.9 29.6008 508.2 30.3008 507.4 30.3008C506.6 30.3008 505.9 29.6008 505.9 28.8008C505.9 27.9008 506.6 27.3008 507.4 27.3008Z" fill="white"/>
</g>
</g>
<mask id="mask3_70_1120" style="mask-type:luminance" maskUnits="userSpaceOnUse" x="488" y="43" width="2" height="2">
<path d="M489.1 43.5977H488.1V44.5977H489.1V43.5977Z" fill="white"/>
</mask>
<g mask="url(#mask3_70_1120)">
<mask id="mask4_70_1120" style="mask-type:luminance" maskUnits="userSpaceOnUse" x="488" y="43" width="2" height="2">
<path d="M489.1 43.5977H488.1V44.5977H489.1V43.5977Z" fill="white"/>
</mask>
<g mask="url(#mask4_70_1120)">
<path d="M488.1 44.0977C488.1 43.7977 488.3 43.5977 488.6 43.5977C488.9 43.5977 489.1 43.7977 489.1 44.0977C489.1 44.3977 488.9 44.5977 488.6 44.5977C488.3 44.5977 488.1 44.3977 488.1 44.0977Z" fill="white"/>
</g>
</g>
<mask id="mask5_70_1120" style="mask-type:luminance" maskUnits="userSpaceOnUse" x="507" y="35" width="2" height="2">
<path d="M508.9 35.3008H507.9V36.3008H508.9V35.3008Z" fill="white"/>
</mask>
<g mask="url(#mask5_70_1120)">
<mask id="mask6_70_1120" style="mask-type:luminance" maskUnits="userSpaceOnUse" x="507" y="35" width="2" height="2">
<path d="M508.9 35.3008H507.9V36.3008H508.9V35.3008Z" fill="white"/>
</mask>
<g mask="url(#mask6_70_1120)">
<path d="M508.1 35.5016C508.3 35.3016 508.6 35.3016 508.8 35.5016C509 35.7016 509 36.0016 508.8 36.2016C508.6 36.4016 508.3 36.4016 508.1 36.2016C507.9 36.0016 507.9 35.7016 508.1 35.5016Z" fill="white"/>
</g>
</g>
<mask id="mask7_70_1120" style="mask-type:luminance" maskUnits="userSpaceOnUse" x="554" y="64" width="2" height="2">
<path d="M555.6 64.5H554.7V65.4H555.6V64.5Z" fill="white"/>
</mask>
<g mask="url(#mask7_70_1120)">
<mask id="mask8_70_1120" style="mask-type:luminance" maskUnits="userSpaceOnUse" x="554" y="64" width="2" height="2">
<path d="M555.6 64.5H554.7V65.4H555.6V64.5Z" fill="white"/>
</mask>
<g mask="url(#mask8_70_1120)">
<path d="M554.8 64.5992C555 64.3992 555.2 64.3992 555.4 64.5992C555.6 64.7992 555.6 64.9992 555.4 65.1992C555.2 65.3992 555 65.3992 554.8 65.1992C554.7 65.0992 554.7 64.7992 554.8 64.5992Z" fill="white"/>
</g>
</g>
<mask id="mask9_70_1120" style="mask-type:luminance" maskUnits="userSpaceOnUse" x="374" y="61" width="2" height="2">
<path d="M375.1 61.8008H374.6V62.3008H375.1V61.8008Z" fill="white"/>
</mask>
<g mask="url(#mask9_70_1120)">
<mask id="mask10_70_1120" style="mask-type:luminance" maskUnits="userSpaceOnUse" x="374" y="61" width="2" height="2">
<path d="M375.1 61.8008H374.6V62.3008H375.1V61.8008Z" fill="white"/>
</mask>
<g mask="url(#mask10_70_1120)">
<path d="M374.7 61.8992C374.8 61.7992 374.9 61.7992 375 61.8992C375.1 61.9992 375.1 62.0992 375 62.1992C374.9 62.2992 374.8 62.2992 374.7 62.1992C374.6 62.0992 374.6 61.9992 374.7 61.8992Z" fill="white"/>
</g>
</g>
<mask id="mask11_70_1120" style="mask-type:luminance" maskUnits="userSpaceOnUse" x="385" y="39" width="1" height="2">
<path d="M385.9 39.5977H385.3V40.1977H385.9V39.5977Z" fill="white"/>
</mask>
<g mask="url(#mask11_70_1120)">
<mask id="mask12_70_1120" style="mask-type:luminance" maskUnits="userSpaceOnUse" x="385" y="39" width="1" height="2">
<path d="M385.9 39.5977H385.3V40.1977H385.9V39.5977Z" fill="white"/>
</mask>
<g mask="url(#mask12_70_1120)">
<path d="M385.4 39.6961C385.5 39.5961 385.7 39.5961 385.8 39.6961C385.9 39.7961 385.9 39.9961 385.8 40.0961C385.7 40.1961 385.5 40.1961 385.4 40.0961C385.3 39.9961 385.3 39.7961 385.4 39.6961Z" fill="white"/>
</g>
</g>
<path d="M177 9.80078L150.6 67.4008L177 45.8008L203.4 67.4008C203.5 67.4008 177 9.80078 177 9.80078ZM177 37.2008C175.7 37.2008 174.6 37.5008 173.6 38.1008L177.1 24.3008C177.1 24.3008 180.6 38.3008 180.6 38.1008C179.5 37.5008 178.3 37.2008 177 37.2008Z" fill="#232F5E"/>
<mask id="mask13_70_1120" style="mask-type:luminance" maskUnits="userSpaceOnUse" x="153" y="17" width="37" height="46">
<path d="M177 24.1984C177 24.1984 180.4 37.8984 180.5 37.9984C179.5 37.3984 178.3 37.0984 177.1 37.0984C175.8 37.0984 174.7 37.3984 173.7 37.9984L177 24.1984ZM153.5 61.2984C154.4 61.8984 155.4 62.3984 156.3 62.7984L177 45.7984L186.4 53.4984C188.7 49.7984 190 45.4984 190 40.7984C190 39.7984 189.9 38.7984 189.8 37.7984L183.8 24.6984C181 21.5984 177.3 19.1984 173.2 17.8984L153.5 61.2984Z" fill="white"/>
</mask>
<g mask="url(#mask13_70_1120)">
<path d="M131.5 36L175.4 0L212.1 44.8L168.2 80.8L131.5 36Z" fill="url(#paint1_linear_70_1120)"/>
</g>
<mask id="mask14_70_1120" style="mask-type:luminance" maskUnits="userSpaceOnUse" x="181" y="36" width="14" height="15">
<path d="M189.1 36.3008C185.1 36.3008 181.9 39.5008 181.9 43.5008C181.9 47.5008 185.1 50.7008 189.1 50.7008C191.3 50.7008 193.3 49.7008 194.6 48.1008L189.1 36.3008Z" fill="white"/>
</mask>
<g mask="url(#mask14_70_1120)">
<path d="M174.8 42.3016L189.4 30.1016L201.7 44.8016L187.2 57.0016L174.8 42.3016Z" fill="url(#paint2_linear_70_1120)"/>
</g>
<mask id="mask15_70_1120" style="mask-type:luminance" maskUnits="userSpaceOnUse" x="160" y="34" width="25" height="22">
<path d="M184.6 34.5H160.8V55.4H184.6V34.5Z" fill="white"/>
</mask>
<g mask="url(#mask15_70_1120)">
<mask id="mask16_70_1120" style="mask-type:luminance" maskUnits="userSpaceOnUse" x="160" y="34" width="25" height="22">
<path d="M184.6 34.5H160.8V55.4H184.6V34.5Z" fill="white"/>
</mask>
<g mask="url(#mask16_70_1120)">
<path d="M182.9 35C183.2 35 183.4 35.2 183.4 35.5C183.4 35.8 183.2 36 182.9 36C182.6 36 182.4 35.8 182.4 35.5C182.4 35.2 182.6 35 182.9 35Z" fill="white"/>
<path d="M162.1 52.7969C162.8 52.7969 163.4 53.3969 163.4 54.0969C163.4 54.7969 162.8 55.3969 162.1 55.3969C161.4 55.3969 160.8 54.7969 160.8 54.0969C160.8 53.2969 161.4 52.7969 162.1 52.7969Z" fill="white"/>
<path d="M184.3 34.5984C184.4 34.4984 184.5 34.4984 184.6 34.5984C184.7 34.6984 184.7 34.7984 184.6 34.8984C184.5 34.9984 184.4 34.9984 184.3 34.8984C184.2 34.7984 184.2 34.6984 184.3 34.5984Z" fill="white"/>
</g>
</g>
<mask id="mask17_70_1120" style="mask-type:luminance" maskUnits="userSpaceOnUse" x="176" y="16" width="1" height="1">
<path d="M176.7 16H176.2V16.5H176.7V16Z" fill="white"/>
</mask>
<g mask="url(#mask17_70_1120)">
<mask id="mask18_70_1120" style="mask-type:luminance" maskUnits="userSpaceOnUse" x="176" y="16" width="1" height="1">
<path d="M176.7 16H176.2V16.5H176.7V16Z" fill="white"/>
</mask>
<g mask="url(#mask18_70_1120)">
<path d="M176.5 16C176.7 16 176.8 16.1 176.8 16.3C176.8 16.5 176.7 16.6 176.5 16.6C176.3 16.6 176.2 16.5 176.2 16.3C176.2 16.1 176.3 16 176.5 16Z" fill="white"/>
</g>
</g>
<mask id="mask19_70_1120" style="mask-type:luminance" maskUnits="userSpaceOnUse" x="193" y="54" width="1" height="2">
<path d="M193.9 54.8008H193.4V55.3008H193.9V54.8008Z" fill="white"/>
</mask>
<g mask="url(#mask19_70_1120)">
<mask id="mask20_70_1120" style="mask-type:luminance" maskUnits="userSpaceOnUse" x="193" y="54" width="1" height="2">
<path d="M193.9 54.8008H193.4V55.3008H193.9V54.8008Z" fill="white"/>
</mask>
<g mask="url(#mask20_70_1120)">
<path d="M193.6 54.8008C193.8 54.8008 193.9 54.9008 193.9 55.1008C193.9 55.3008 193.8 55.4008 193.6 55.4008C193.4 55.4008 193.3 55.3008 193.3 55.1008C193.4 54.9008 193.5 54.8008 193.6 54.8008Z" fill="white"/>
</g>
</g>
<path d="M177 37.2008C175.7 37.2008 174.6 37.5008 173.6 38.1008L177.1 24.3008C177.1 24.3008 180.6 38.3008 180.6 38.1008C179.5 37.5008 178.3 37.2008 177 37.2008Z" fill="white"/>
<path d="M217.9 106.398H222.2V108.998C222.8 108.098 223.5 107.398 224.5 106.898C225.5 106.298 226.5 106.098 227.7 106.098C229.7 106.098 231.5 106.898 232.9 108.498C234.3 110.098 235 112.298 235 115.198C235 118.098 234.3 120.398 232.9 121.998C231.5 123.598 229.7 124.398 227.7 124.398C226.7 124.398 225.9 124.198 225.1 123.798C224.3 123.398 223.5 122.798 222.6 121.798V130.598H218V106.398H217.9ZM222.5 114.898C222.5 116.898 222.9 118.298 223.7 119.298C224.5 120.198 225.4 120.698 226.6 120.698C227.7 120.698 228.6 120.298 229.3 119.398C230 118.498 230.4 117.098 230.4 115.098C230.4 113.298 230 111.898 229.3 110.998C228.6 110.098 227.6 109.698 226.6 109.698C225.5 109.698 224.5 110.098 223.8 110.998C222.9 111.898 222.5 113.198 222.5 114.898Z" fill="white"/>
<path d="M237.7 114.9C237.7 113.4 238.1 111.9 238.8 110.4C239.6 109 240.6 107.9 242 107.1C243.4 106.3 245 106 246.7 106C249.4 106 251.5 106.9 253.2 108.6C254.9 110.3 255.7 112.5 255.7 115.1C255.7 117.8 254.8 120 253.1 121.7C251.4 123.4 249.2 124.3 246.6 124.3C245 124.3 243.5 123.9 242 123.2C240.5 122.5 239.4 121.4 238.7 120C238.1 118.7 237.7 117 237.7 114.9ZM242.4 115.2C242.4 116.9 242.8 118.3 243.6 119.2C244.4 120.1 245.4 120.6 246.7 120.6C248 120.6 248.9 120.1 249.8 119.2C250.6 118.3 251 116.9 251 115.2C251 113.5 250.6 112.2 249.8 111.2C249 110.3 248 109.8 246.7 109.8C245.4 109.8 244.5 110.3 243.6 111.2C242.9 112.1 242.4 113.5 242.4 115.2Z" fill="white"/>
<path d="M262.7 123.998L257.1 106.398H261.6L264.9 117.898L267.9 106.398H272.4L275.3 117.898L278.7 106.398H283.3L277.7 123.998H273.2L270.2 112.698L267.2 123.998H262.7Z" fill="white"/>
<path d="M295.9 118.398L300.5 119.198C299.9 120.898 299 122.198 297.7 123.098C296.4 123.998 294.8 124.398 292.9 124.398C289.8 124.398 287.6 123.398 286.1 121.398C284.9 119.798 284.4 117.798 284.4 115.398C284.4 112.498 285.2 110.198 286.7 108.598C288.2 106.998 290.1 106.098 292.5 106.098C295.1 106.098 297.2 106.998 298.7 108.698C300.2 110.398 300.9 113.098 300.9 116.598H289.3C289.3 117.998 289.7 118.998 290.4 119.798C291.1 120.598 292 120.898 293.1 120.898C293.8 120.898 294.4 120.698 294.9 120.298C295.3 119.898 295.7 119.298 295.9 118.398ZM296.2 113.698C296.2 112.398 295.8 111.298 295.2 110.598C294.5 109.898 293.7 109.598 292.8 109.598C291.8 109.598 290.9 109.998 290.3 110.698C289.6 111.398 289.3 112.398 289.3 113.698H296.2Z" fill="white"/>
<path d="M309 124H304.4V106.4H308.7V108.9C309.4 107.7 310.1 106.9 310.7 106.6C311.3 106.2 312 106 312.7 106C313.8 106 314.8 106.3 315.8 106.9L314.4 111C313.6 110.5 312.9 110.2 312.2 110.2C311.5 110.2 311 110.4 310.5 110.7C310 111.1 309.7 111.7 309.4 112.6C309.1 113.5 309 115.5 309 118.5V124Z" fill="white"/>
<path d="M327.9 118.398L332.5 119.198C331.9 120.898 331 122.198 329.7 123.098C328.4 123.998 326.8 124.398 324.9 124.398C321.8 124.398 319.6 123.398 318.1 121.398C316.9 119.798 316.4 117.798 316.4 115.398C316.4 112.498 317.2 110.198 318.7 108.598C320.2 106.998 322.1 106.098 324.5 106.098C327.1 106.098 329.2 106.998 330.7 108.698C332.2 110.398 332.9 113.098 332.9 116.598H321.3C321.3 117.998 321.7 118.998 322.4 119.798C323.1 120.598 324 120.898 325.1 120.898C325.8 120.898 326.4 120.698 326.9 120.298C327.3 119.898 327.7 119.298 327.9 118.398ZM328.2 113.698C328.2 112.398 327.8 111.298 327.2 110.598C326.5 109.898 325.7 109.598 324.8 109.598C323.8 109.598 322.9 109.998 322.3 110.698C321.6 111.398 321.3 112.398 321.3 113.698H328.2Z" fill="white"/>
<path d="M352.7 123.999H348.4V121.399C347.7 122.399 346.8 123.099 345.9 123.599C344.9 124.099 343.9 124.299 342.9 124.299C340.9 124.299 339.2 123.499 337.7 121.899C336.3 120.299 335.5 117.999 335.5 115.099C335.5 112.099 336.2 109.899 337.6 108.299C339 106.799 340.8 105.999 342.9 105.999C344.9 105.999 346.6 106.799 348 108.399V99.6992H352.6V123.999H352.7ZM340.3 114.799C340.3 116.699 340.6 117.999 341.1 118.899C341.8 120.099 342.9 120.699 344.2 120.699C345.3 120.699 346.2 120.199 346.9 119.299C347.6 118.399 348 116.999 348 115.199C348 113.199 347.6 111.699 346.9 110.799C346.2 109.899 345.2 109.499 344.1 109.499C343 109.499 342.1 109.899 341.3 110.799C340.7 111.799 340.3 113.099 340.3 114.799Z" fill="white"/>
<path d="M366.5 123.999V99.6992H371.1V108.399C372.5 106.799 374.2 105.999 376.2 105.999C378.3 105.999 380.1 106.799 381.5 108.299C382.9 109.799 383.6 112.099 383.6 114.999C383.6 117.999 382.9 120.299 381.5 121.899C380.1 123.499 378.3 124.299 376.3 124.299C375.3 124.299 374.3 124.099 373.3 123.499C372.3 122.999 371.5 122.299 370.8 121.299V123.899H366.5V123.999ZM371.1 114.799C371.1 116.599 371.4 117.999 372 118.799C372.8 119.999 373.9 120.699 375.2 120.699C376.2 120.699 377.1 120.299 377.8 119.399C378.5 118.499 378.9 117.099 378.9 115.299C378.9 113.299 378.5 111.799 377.8 110.999C377.1 110.199 376.1 109.699 375 109.699C373.9 109.699 373 110.099 372.2 110.999C371.5 111.699 371.1 113.099 371.1 114.799Z" fill="white"/>
<path d="M385.2 106.398H390.1L394.3 118.898L398.4 106.398H403.2L397 123.298L395.9 126.398C395.5 127.398 395.1 128.198 394.7 128.698C394.3 129.198 393.9 129.698 393.4 129.998C392.9 130.298 392.3 130.598 391.6 130.798C390.9 130.998 390.1 131.098 389.2 131.098C388.3 131.098 387.4 130.998 386.6 130.798L386.2 127.198C386.9 127.298 387.6 127.398 388.2 127.398C389.3 127.398 390.1 127.098 390.6 126.398C391.1 125.798 391.5 124.998 391.8 123.998L385.2 106.398Z" fill="white"/>
<path d="M529.5 91.3008H413.2V131.001H529.5V91.3008Z" fill="white"/>
<path d="M516.439 124.239H521.839V96.5391H516.439V124.239ZM497.139 111.039C496.239 113.839 495.739 116.739 495.339 119.639C495.139 117.539 494.939 115.339 494.739 113.239C494.339 110.539 493.939 107.839 493.539 105.139H488.039L491.939 124.339H498.239C498.539 122.739 498.939 121.239 499.339 119.639C499.939 117.439 500.539 115.239 500.939 113.039C501.139 111.739 501.339 110.539 501.439 109.239C501.639 110.839 501.739 112.439 502.039 113.939C502.339 115.639 502.739 117.239 503.139 118.839C503.539 120.639 503.939 122.439 504.239 124.239H510.439L514.339 105.039H509.339C508.939 107.439 508.539 109.839 508.239 112.239C507.939 114.639 507.639 117.139 507.439 119.539C507.239 118.239 507.039 116.939 506.839 115.639C506.539 114.039 506.139 112.539 505.739 110.939C505.239 109.039 504.839 107.039 504.539 105.139H498.739L497.139 111.039ZM476.339 117.339C476.339 115.539 476.339 113.839 476.339 111.939C476.239 110.939 476.339 109.939 476.739 109.039C477.039 108.339 477.739 107.939 478.439 107.939C478.839 107.939 479.239 108.039 479.539 108.339C480.139 108.939 480.539 109.939 480.339 110.839C480.439 112.539 480.239 114.239 480.239 115.939C480.339 117.239 480.339 118.539 480.139 119.739C479.839 120.539 479.139 121.039 478.339 121.139C477.939 121.139 477.639 121.039 477.239 120.839C476.439 120.339 476.339 119.439 476.339 117.339ZM471.039 116.939C470.939 118.639 471.339 120.339 472.039 121.839C472.339 122.439 472.739 122.839 473.239 123.239C474.839 124.239 476.739 124.739 478.639 124.539C483.339 124.539 484.839 122.339 485.439 120.039C485.739 117.839 485.839 115.639 485.739 113.439C485.939 111.639 485.739 109.939 485.239 108.239C485.039 107.639 484.739 107.139 484.339 106.739C482.739 105.339 480.739 104.639 478.639 104.639C476.539 104.539 474.439 105.239 472.839 106.539C471.639 107.939 471.039 109.739 471.139 111.539C471.039 113.339 471.039 115.239 471.039 116.939ZM449.339 116.239C450.839 117.039 451.639 117.339 452.039 118.139C452.139 118.439 452.239 118.839 452.239 119.139C452.339 120.139 451.539 120.939 450.639 121.039H450.539C448.739 121.039 448.739 119.039 448.739 117.639H443.339C443.039 119.439 443.539 121.339 444.739 122.739C445.839 123.739 447.239 124.339 448.639 124.339C449.239 124.339 449.839 124.439 450.439 124.439C453.139 124.839 455.739 123.539 457.139 121.139C457.539 120.339 457.739 119.439 457.739 118.539C457.739 117.139 457.139 115.739 456.039 114.739C455.239 114.139 454.439 113.539 453.539 113.139C452.739 112.739 452.039 112.239 451.339 111.839C450.439 111.539 449.639 111.039 449.039 110.339C448.839 110.039 448.739 109.739 448.739 109.339C448.739 108.439 449.439 107.739 450.339 107.639C450.339 107.639 450.339 107.639 450.439 107.639C450.839 107.639 451.139 107.739 451.439 108.039C451.939 108.539 452.239 109.239 452.139 110.039C452.139 110.239 452.139 110.439 452.139 110.639H457.339C457.439 109.739 457.239 108.739 456.939 107.839C456.639 107.039 456.239 106.339 455.539 105.839C454.139 104.739 452.239 104.239 450.439 104.439C448.239 104.239 446.039 105.039 444.539 106.739C443.839 107.639 443.439 108.839 443.439 110.039C443.439 111.839 444.339 113.439 445.939 114.339C446.439 114.639 446.939 114.939 447.439 115.139L449.339 116.239ZM427.539 105.039V108.639H430.339V119.539C430.339 120.239 430.439 121.039 430.639 121.739C430.839 122.339 431.239 122.839 431.639 123.239C432.539 124.039 433.739 124.439 434.939 124.339C436.239 124.339 437.439 124.239 438.739 123.939V120.539C438.339 120.539 437.839 120.639 437.439 120.639C436.339 120.639 435.739 120.439 435.739 118.439V108.539H438.739V104.939H435.739V99.6391L430.339 102.139V105.039H427.539ZM419.939 100.939H425.039V96.6391H419.939V100.939ZM419.939 124.139H425.139V104.939H419.939V124.139Z" fill="black"/>
<path d="M445.939 96.5375C445.539 97.1375 445.039 97.7375 444.639 98.2375C444.139 98.8375 443.639 99.4375 443.139 100.037C442.539 100.737 441.839 101.538 441.239 102.338L444.239 102.438C444.739 101.838 445.239 101.338 445.839 100.738C446.639 99.9375 447.539 99.1375 448.439 98.3375C449.139 97.7375 449.739 97.0375 450.339 96.4375H445.939V96.5375Z" fill="black"/>
</g>
<defs>
<linearGradient id="paint0_linear_70_1120" x1="370.859" y1="38.3302" x2="562.786" y2="38.3302" gradientUnits="userSpaceOnUse">
<stop stop-color="#3AB6AB"/>
<stop offset="0.15" stop-color="#3AB6AB"/>
<stop offset="0.51" stop-color="#39B4A9"/>
<stop offset="0.64" stop-color="#37ADA5"/>
<stop offset="0.73" stop-color="#33A19F"/>
<stop offset="0.8" stop-color="#2E9095"/>
<stop offset="0.87" stop-color="#287A88"/>
<stop offset="0.93" stop-color="#205F78"/>
<stop offset="0.98" stop-color="#173F66"/>
<stop offset="1" stop-color="#122E5C"/>
</linearGradient>
<linearGradient id="paint1_linear_70_1120" x1="148.715" y1="59.368" x2="185.863" y2="28.9305" gradientUnits="userSpaceOnUse">
<stop stop-color="#3AB6AB"/>
<stop offset="0.42" stop-color="#39B4A9"/>
<stop offset="0.57" stop-color="#37ADA5"/>
<stop offset="0.68" stop-color="#33A19F"/>
<stop offset="0.77" stop-color="#2E9095"/>
<stop offset="0.85" stop-color="#287A88"/>
<stop offset="0.91" stop-color="#205F78"/>
<stop offset="0.97" stop-color="#173F66"/>
<stop offset="1" stop-color="#122E5C"/>
</linearGradient>
<linearGradient id="paint2_linear_70_1120" x1="183.646" y1="47.2738" x2="194.68" y2="38.0152" gradientUnits="userSpaceOnUse">
<stop stop-color="#38B6AB"/>
<stop offset="1" stop-color="#38B6AB"/>
</linearGradient>
<clipPath id="clip0_70_1120">
<rect width="562.3" height="131.1" fill="white"/>
</clipPath>
</defs>
</svg>
